<svg width="15" height="14" viewBox="0 0 15 14" fill="none" xmlns="http://www.w3.org/2000/svg">
<path d="M10.6087 1.75V2.25H11.1087H12.6616C13.256 2.25 13.7145 2.71734 13.7145 3.25V4C13.7145 5.63823 12.4344 7.00392 10.7457 7.20863L10.4615 7.24309L10.3474 7.50563C9.92506 8.47685 9.01431 9.21774 7.90694 9.43429L7.5029 9.51331V9.925V12.25V12.75H8.0029H10.6087V13.25H3.8442V12.75H6.45H6.95V12.25V9.925V9.51331L6.54597 9.43429C5.4386 9.21774 4.52785 8.47685 4.10555 7.50563L3.99139 7.24309L3.70719 7.20863C2.01855 7.00392 0.738403 5.63823 0.738403 4V3.25C0.738403 2.71734 1.19687 2.25 1.7913 2.25H3.3442H3.8442V1.75V0.75H10.6087V1.75ZM1.7913 2.75H1.2913V3.25V4C1.2913 5.20865 2.09856 6.20905 3.17914 6.58697L3.8442 6.81956V6.115V3.25V2.75H3.3442H1.7913ZM10.6087 6.115V6.81956L11.2738 6.58697C12.3543 6.20905 13.1616 5.20865 13.1616 4V3.25V2.75H12.6616H11.1087H10.6087V3.25V6.115Z" stroke="#696969"/>
</svg>
